<svg width="28" height="24" viewBox="0 0 28 24" fill="none" xmlns="http://www.w3.org/2000/svg">
<path d="M1.88708 11.0538C1.8409 10.8694 1.83736 10.677 1.87671 10.4911C1.91606 10.3052 1.99726 10.1308 2.11416 9.98098C2.23105 9.83119 2.38056 9.71002 2.55131 9.62667C2.72206 9.54333 2.90957 9.5 3.09958 9.5H24.8996C25.0894 9.50005 25.2768 9.54336 25.4475 9.62663C25.6181 9.70991 25.7675 9.83096 25.8844 9.9806C26.0013 10.1302 26.0825 10.3045 26.122 10.4903C26.1614 10.676 26.158 10.8683 26.1121 11.0525L23.8483 20.1063C23.7131 20.6471 23.401 21.1272 22.9617 21.4704C22.5223 21.8135 21.9808 21.9999 21.4233 22H6.57583C6.01834 21.9999 5.47687 21.8135 5.03749 21.4704C4.59811 21.1272 4.28602 20.6471 4.15083 20.1063L1.88708 11.0538Z" stroke="black" stroke-width="2.5" stroke-linejoin="round"/>
<path d="M10.25 14.5V17M17.75 14.5V17M6.5 9.5L11.5 2M21.5 9.5L16.5 2" stroke="black" stroke-width="2.5" stroke-linecap="round"/>
</svg>
