<svg width="66" height="66" viewBox="0 0 66 66" fill="none" xmlns="http://www.w3.org/2000/svg">
<path d="M3.80028 41.8507C4.00195 41.8332 4.18018 41.8215 4.33964 42.0085C4.44282 42.1312 4.53662 42.3299 4.53193 42.511C4.52724 42.7857 4.33495 42.9785 4.18018 43.1421L4.00664 43.183C3.88001 43.183 3.72055 43.0895 3.63613 42.9727C3.54232 42.8383 3.48135 42.6104 3.49542 42.4292C3.51887 42.1546 3.63613 42.026 3.80028 41.8507Z" fill="#AC9782"/>
<path d="M3.40141 3.06807L3.60778 3.06222C3.76724 3.06806 3.90325 3.15572 4.00643 3.30764C4.12369 3.4771 4.17528 3.69915 4.15652 3.91536C4.12369 4.20752 3.95953 4.34776 3.78131 4.51138L3.63592 4.51722C3.44831 4.51722 3.29823 4.46463 3.16691 4.29518C3.05435 4.14909 2.99806 3.96794 3.01213 3.76343C3.03559 3.4362 3.20912 3.27259 3.40141 3.06807Z" fill="#AC9782"/>
<path d="M1.06119 30.1698C1.19252 30.164 1.33791 30.1464 1.46454 30.1698C1.61462 30.199 1.78816 30.3626 1.87258 30.5146C1.98045 30.7191 1.98983 30.9411 1.94293 31.1749C1.87727 31.4729 1.67559 31.654 1.46923 31.8059C1.37074 31.8235 1.26756 31.841 1.16906 31.8293C0.990841 31.8001 0.817307 31.619 0.718815 31.4437C0.620323 31.2625 0.573423 30.9879 0.615634 30.7775C0.681295 30.4561 0.845448 30.3217 1.06119 30.1698Z" fill="#AC9782"/>
<path d="M0.0621661 9.81697L0.7094 9.80529C1.4176 9.89878 2.11174 10.5416 2.54323 11.2194C2.60889 11.3246 2.75897 11.5641 2.78711 11.6869C2.80587 11.7862 2.77773 11.9965 2.77304 12.1076L2.69331 13.4048C1.8444 12.8088 1.23938 12.0082 0.582767 11.1259C0.390473 10.8629 0.0903072 10.5415 0.0246459 10.1909C-0.0128749 9.99812 -0.0128754 9.98059 0.0621661 9.81697Z" fill="#AC9782"/>
<path d="M25.6889 38.3213L25.7358 38.2921C25.9468 38.1519 26.0078 37.9999 26.1673 37.7954L26.1438 39.3322L26.1157 39.2387C26.05 39.0167 25.975 38.6778 25.7874 38.5667C25.7076 38.52 25.6091 38.5083 25.52 38.4966L25.4075 38.4031C25.4919 38.3505 25.5951 38.3447 25.6889 38.3213Z" fill="#AC9782"/>
<path d="M34.2718 41.0211L34.4454 40.9978C34.4782 41.2724 34.4876 41.5646 34.6752 41.7516C34.769 41.8451 34.8675 41.8743 34.9847 41.9035L35.3459 42.0028L33.5871 42.073L33.104 42.0437L33.2541 41.9853L33.1931 41.9502L33.1978 41.8977C33.4605 41.9386 33.7841 42.0262 34.0139 41.8158C34.2296 41.623 34.2343 41.325 34.2718 41.0211Z" fill="#AC9782"/>
<path d="M24.5164 34.7333L27.0818 34.7275L27.2225 36.0597C27.0302 35.5923 26.9036 35.1832 26.4721 34.9904C26.2282 34.8852 25.9515 34.8969 25.6936 34.8969L24.6477 34.8911L24.5164 34.7333Z" fill="#AC9782"/>
<path d="M24.657 41.9911C25.5246 41.7983 26.4486 42.3242 27.0489 41.2549C27.1474 41.0854 27.2131 40.8926 27.321 40.729L27.2553 42.143L24.9618 42.108L24.657 41.9911Z" fill="#AC9782"/>
<path d="M56.0528 26.0148L56.3201 26.009C56.4374 26.0207 56.5734 26.1025 56.6438 26.2252C56.7422 26.3888 56.7188 26.5466 56.7047 26.7394C56.6203 26.9498 56.5359 27.0257 56.3811 27.1543C56.2873 27.1718 56.1794 27.201 56.0856 27.1835C55.9543 27.1601 55.8652 27.0433 55.7808 26.9322C55.7573 26.7745 55.7479 26.6459 55.7714 26.4823C55.7995 26.2427 55.8886 26.1551 56.0528 26.0148Z" fill="#AC9782"/>
<path d="M61.2117 41.4763L61.39 41.5055C61.5494 41.5405 61.6714 41.6107 61.7605 41.7918C61.8168 41.9145 61.8308 42.1483 61.7933 42.2827C61.7323 42.4872 61.5119 42.5865 61.3665 42.6742C61.2071 42.6449 60.9726 42.5982 60.8741 42.4171C60.7756 42.2418 60.7756 42.0255 60.8225 41.8269C60.935 41.6516 61.0476 41.5698 61.2117 41.4763Z" fill="#AC9782"/>
<path d="M8.91712 25.2553C9.07659 25.2612 9.25012 25.267 9.39082 25.378C9.53153 25.4891 9.64878 25.6702 9.66285 25.8806C9.68161 26.1435 9.52684 26.3247 9.39082 26.5L9.1657 26.5467C9.02969 26.5584 8.88898 26.4766 8.79518 26.3539C8.69669 26.2312 8.67324 26.0676 8.67793 25.904C8.68731 25.6176 8.75297 25.4599 8.91712 25.2553Z" fill="#AC9782"/>
<path d="M29.047 38.707L29.1549 38.7888L28.8078 39.8231L30.0507 39.8056C30.2993 39.8056 30.5713 39.7705 30.8152 39.8289C30.5995 39.9049 30.44 39.8523 30.2243 39.864C30.1586 39.8698 30.0929 39.9049 30.0273 39.9166C29.7506 39.9516 29.4457 39.9224 29.1643 39.9166C29.0236 39.9166 28.8782 39.9341 28.7422 39.8757L28.6953 39.9575C28.9298 39.9575 29.1924 39.9224 29.4176 39.9575C29.4738 39.9692 29.516 39.9692 29.5723 39.9633C29.8584 39.9283 30.1633 39.9809 30.4541 39.9575L30.5619 39.9692L30.7964 39.9809C30.2899 40.0568 29.7693 39.9458 29.2675 40.0276L28.7234 40.0685C28.5311 40.536 28.2685 41.3073 28.3764 41.8274C28.4045 41.9618 28.5405 41.9968 28.5546 42.1487L27.6963 42.1663C28.2919 41.1612 28.6718 39.8582 29.047 38.707Z" fill="#AC9782"/>
<path d="M60.7709 2.91033C60.9022 2.90448 61.0476 2.88695 61.1789 2.91033C61.329 2.9337 61.5119 3.0681 61.601 3.22002C61.7324 3.44792 61.7605 3.71671 61.7183 3.99135C61.6761 4.28352 61.4838 4.45298 61.2962 4.6049C61.2165 4.62243 61.1367 4.62828 61.057 4.63412C60.8835 4.63996 60.7428 4.564 60.6208 4.41792C60.4848 4.24846 60.3769 3.95629 60.3863 3.71671C60.4004 3.34274 60.5598 3.1499 60.7709 2.91033Z" fill="#AC9782"/>
<path d="M36.7761 44.083C36.1383 45.573 35.8428 47.2033 35.0924 48.6349C34.6421 49.4939 33.9714 50.2243 33.4368 51.019C33.7276 50.1659 33.9152 49.266 34.1825 48.4071C34.7265 46.6949 35.7818 45.4036 36.7761 44.083Z" fill="#AC9782"/>
<path d="M64.8841 9.87537C65.0811 9.87537 65.3062 9.87536 65.461 10.0156C65.4703 10.0916 65.4703 10.1558 65.4563 10.2318C65.3859 10.5824 65.1561 10.9038 64.9779 11.1784C64.4714 11.9731 64.0305 12.5107 63.3223 13.0016L62.8627 13.2295C62.8204 12.4932 62.8673 11.6751 63.2379 11.0674C63.6365 10.4071 64.2275 9.98639 64.8841 9.87537Z" fill="#AC9782"/>
<path d="M49.8711 16.0756L51.4048 13.9428L52.7743 15.7017C52.8774 15.8302 53.1776 16.1049 53.2151 16.2451L50.917 17.3612C50.5324 16.9755 50.2088 16.5197 49.8711 16.0756Z" fill="#AC9782"/>
<path d="M45.9219 44.1352L48.5296 44.182C48.0981 45.263 47.7135 46.3323 47.146 47.3199L46.1189 48.9619C46.072 48.5937 46.147 48.1087 46.147 47.7231C46.1611 46.531 46.1423 45.2981 45.9219 44.1352Z" fill="#AC9782"/>
<path d="M28.381 43.6384C28.8312 44.0065 29.2393 44.5558 29.5629 45.0875C30.121 45.9874 30.5009 46.9749 30.7213 48.0793C30.9183 49.0552 31.0168 50.0369 31.2748 50.9952C30.5572 50.0427 29.7833 48.9441 29.2955 47.7872C28.7562 46.5016 28.5217 45.07 28.381 43.6384Z" fill="#AC9782"/>
<path d="M43.1313 44.1582L43.8301 44.1641C43.8161 47.115 42.8921 49.7036 41.3397 51.9124L40.8848 52.4967C41.4851 51.1644 41.5977 49.5926 41.9307 48.1434C42.2543 46.7644 42.6811 45.4613 43.1313 44.1582Z" fill="#AC9782"/>
<path d="M20.8158 43.9427C21.0644 43.9135 21.721 43.8375 21.9086 44.0303C23.1186 45.2574 23.4282 47.1156 23.6674 48.9271C23.8597 50.4113 23.9675 51.615 24.8258 52.7603C24.7461 52.7194 24.6945 52.6727 24.6288 52.6025C24.3756 52.211 24.0613 51.8663 23.7893 51.4923C23.1937 50.6742 22.6402 49.675 22.2557 48.6816C21.918 47.8051 21.7069 46.8644 21.4771 45.9411C21.3176 45.2983 21.1441 44.4803 20.8158 43.9427Z" fill="#AC9782"/>
<path d="M24.9573 42.1136H23.1375V42.0435L23.3298 41.8273C23.4095 40.5534 23.3486 39.2387 23.358 37.959L23.3673 36.0248C23.3673 35.7268 23.4002 35.3528 23.3345 35.0665C23.2876 34.8737 23.1891 34.8503 23.0531 34.7743C23.4424 34.6341 24.099 34.7334 24.5164 34.7334L24.6477 34.8971L24.6384 38.2979L25.6889 38.3213C25.5951 38.3388 25.492 38.3446 25.4075 38.4031L25.5201 38.4966L24.6337 38.4557L24.6571 41.9968L24.9573 42.1136Z" fill="#AC9782"/>
<path d="M46.1986 34.8445C46.48 34.5523 46.935 34.4588 47.2914 34.5056C47.7651 34.564 48.0747 34.862 48.3701 35.3119C48.4311 35.0198 48.5155 34.7568 48.6187 34.4822C48.6281 35.3061 48.7266 36.2235 48.6468 37.0357C48.4405 36.2527 48.3748 35.2301 47.7041 34.8094C47.4649 34.6633 47.0381 34.6166 46.7896 34.7393C46.6395 34.8153 46.5269 34.9555 46.3956 35.0665C46.2877 35.347 46.1752 35.6216 46.2643 35.9372C46.4519 36.615 47.01 36.9539 47.4743 37.2695C48.2388 37.7954 49.1299 38.4615 49.28 39.636C49.3316 40.0451 49.2988 40.5009 49.1674 40.8807C48.9611 41.4767 48.5296 41.8215 48.0512 42.0377C47.7698 42.1662 47.3664 42.3006 47.0663 42.2071C46.8693 42.1604 46.6723 42.0903 46.5035 41.9617C46.3815 41.8682 46.0391 41.4825 45.9219 41.4709C45.6499 41.4475 45.7202 41.6871 45.5701 41.8507L45.5092 41.763L45.5185 39.2504C45.7155 39.934 45.7249 40.6177 46.072 41.243C46.3206 41.6929 46.6301 41.9325 47.0616 42.0201L47.1132 42.0318C47.2773 42.026 47.4227 42.0143 47.5775 41.9325C47.8589 41.7864 48.084 41.5118 48.1872 41.1495C48.6093 39.6945 47.3008 39.1569 46.5457 38.5725C46.1752 38.2862 45.7812 37.9064 45.603 37.3922C45.4154 36.8663 45.3966 36.206 45.5701 35.6684C45.6874 35.3295 45.9172 34.9964 46.1986 34.8445Z" fill="#AC9782"/>
<path d="M45.5843 44.1412C45.6687 44.1354 45.7015 44.1471 45.7766 44.1938C45.9595 45.3683 45.7015 46.8759 45.3216 47.9628C44.6087 49.9963 43.2814 51.4805 41.6352 52.2927C41.5742 52.3219 41.5226 52.3336 41.4617 52.3512C41.7712 51.9713 42.1464 51.7142 42.4513 51.2994C43.0657 50.4637 43.3752 49.3418 43.5816 48.2608C43.8396 46.9227 43.9662 45.5378 43.9099 44.1587L45.5843 44.1412Z" fill="#AC9782"/>
<path d="M14.4138 14.1003C15.0188 13.2588 16.6604 10.565 17.4718 10.4774C17.7344 10.4482 18.0533 10.6994 18.2269 10.9215C18.4004 11.1435 18.4754 11.3948 18.5505 11.687C17.9736 13.1011 17.0684 14.3632 16.318 15.6429C15.9662 16.2448 15.6473 16.9343 15.2487 17.4894C15.0751 17.4135 14.9016 17.3433 14.7421 17.2206C14.7327 17.1388 14.7374 17.1622 14.7234 17.0979C14.4748 16.087 14.442 15.1462 14.4138 14.1003Z" fill="#AC9782"/>
<path d="M49.871 16.0757L48.3373 14.0656C47.7979 13.341 47.1366 12.5638 46.7802 11.6698L46.752 11.5997C46.7005 11.4653 46.6489 11.3484 46.6348 11.1965C46.6067 10.8575 46.7005 10.4777 46.8881 10.2265C47.0991 9.94598 47.3665 9.78236 47.6713 9.78821C47.9293 9.79405 48.1403 9.94013 48.3467 10.1271C48.7031 10.4544 48.9986 10.9335 49.3128 11.325L51.4093 13.9428L49.871 16.0757Z" fill="#AC9782"/>
<path d="M0.442017 23.5666C1.04235 23.9814 1.71772 24.1684 2.36026 24.4548C3.6688 25.0332 4.78973 26.0149 5.36192 27.6335C5.58236 28.2588 5.72306 28.9132 5.96226 29.5326L2.22894 25.7052L2.19611 25.752L2.48221 26.1669C3.56562 27.7738 4.65372 29.2405 6.0373 30.4559L3.23731 29.1178C1.97568 28.3815 1.50667 27.1135 1.04235 25.5884L0.442017 23.5666Z" fill="#AC9782"/>
<path d="M65.3012 23.5373L65.3387 23.6191L64.6493 26.1902C64.1099 27.7503 63.2797 28.732 62.0181 29.3689L60.0999 30.2046C61.385 29.0534 62.4402 27.388 63.5189 25.9447V25.8512L61.6101 27.762C60.9863 28.3931 60.325 29.0067 59.8091 29.778L59.8372 29.6085C60.1139 27.9899 60.7283 26.2603 61.8587 25.302C62.2339 24.9864 62.7029 24.7702 63.1297 24.6008C63.6127 24.4079 64.1333 24.2969 64.5977 24.0573C64.8462 23.9229 65.0761 23.7184 65.3012 23.5373Z" fill="#AC9782"/>
<path d="M50.7668 34.4178C50.9122 34.7684 50.9731 35.2242 51.0669 35.604C51.3718 36.8312 51.7329 38.07 51.8455 39.3555C52.0284 41.4942 51.156 43.4984 50.1055 45.1112L49.6271 45.8825C49.5802 43.814 49.477 41.7045 49.7068 39.6418C49.9038 37.8596 50.34 36.1358 50.7668 34.4178Z" fill="#AC9782"/>
<path d="M14.6064 34.1663C14.7471 34.3006 14.8034 34.511 14.8784 34.7097L15.3099 36.0244C15.8164 37.7599 16.3792 39.8285 16.2338 41.6984C16.1635 42.6333 15.8774 43.5507 15.8539 44.474C15.8446 44.8655 15.9149 45.2453 15.9853 45.6251C15.1598 44.3454 15.188 42.1366 15.0895 40.5647L15.005 39.2032C14.991 39.0221 15.0003 38.8293 14.9206 38.6715L14.7705 41.9379L14.7987 43.9305C14.4469 43.2936 14.0764 42.6158 13.8372 41.9029C13.2369 40.1207 13.5839 38.391 14.0529 36.6322C14.2734 35.8082 14.522 35.0428 14.6064 34.1663Z" fill="#AC9782"/>
<path d="M24.1881 52.5033C23.9724 52.4273 23.7472 52.2287 23.5596 52.0826C23.1235 51.7495 22.6967 51.3814 22.2933 50.9899C21.5101 50.2244 20.5674 49.2895 20.1359 48.15C19.8873 47.4955 19.7747 46.771 19.6528 46.0698C19.5215 45.3043 19.3855 44.6264 19.0572 43.9545C19.1228 44.381 19.2354 44.7959 19.2963 45.2225C19.4933 46.6658 19.4886 47.8929 20.1734 49.1551C19.7419 48.7519 19.3808 48.2435 19.0056 47.7643C18.0441 46.5197 17.1952 45.2692 16.4166 43.8434L19.2494 43.8902C19.7278 43.896 20.3235 43.8201 20.7878 43.9486C21.0129 44.7492 21.2334 45.5205 21.3975 46.3444C21.5429 47.0865 21.6179 47.852 21.7962 48.5824C22.0072 49.4648 22.4199 50.3997 22.9077 51.0892C23.2829 51.6385 23.7848 51.9949 24.1881 52.5033Z" fill="#AC9782"/>
<path d="M16.6276 34.7101L18.6631 34.7335C18.3019 35.2944 18.4004 35.9314 18.4004 36.6092V38.3447L20.6048 38.3505L20.6095 36.282C20.6095 35.8729 20.6423 35.423 20.5438 35.0256C20.5016 34.8562 20.3749 34.8094 20.2577 34.7276C20.525 34.6809 22.0399 34.6458 22.2135 34.7627C22.0728 34.8562 21.9227 35.0139 21.8852 35.2185C21.8429 35.4464 21.8664 35.7385 21.8664 35.9723V37.3688V40.1211C21.8664 40.5944 21.8383 41.0969 21.8758 41.5702C21.8898 41.7514 21.9649 41.8858 22.0446 42.0318L22.0775 42.0903C22.0681 42.1078 22.0587 42.1253 22.0446 42.137C22.0118 42.1604 20.6188 42.1487 20.3937 42.1838L20.3093 42.2013C20.389 42.0727 20.511 41.9442 20.5485 41.7923C20.6235 41.4826 20.5907 41.0443 20.5907 40.7171L20.6048 38.5024L18.4051 38.52L18.4004 40.6762C18.4004 41.0268 18.3676 41.4417 18.4098 41.7864C18.4192 41.8858 18.4567 41.9617 18.5036 42.0435L18.5552 42.1253L18.5317 42.1721L16.8527 42.1546L16.8855 42.1195C16.9559 42.0494 17.0262 41.9909 17.0591 41.8858C17.1247 41.6695 17.1013 41.3832 17.1013 41.1553V39.7997L17.0966 36.7144C17.0966 36.2703 17.1669 35.5223 17.0215 35.1191C16.9277 34.8503 16.8433 34.8036 16.6276 34.7101Z" fill="#AC9782"/>
<path d="M40.9271 45.3157C40.7911 45.5552 40.5988 45.824 40.4956 46.0928C40.4393 46.2389 40.4487 46.4259 40.4346 46.5837L40.3127 47.5595C40.2329 48.0737 40.111 48.5879 39.9797 49.0905C39.6373 50.3994 39.1495 51.831 38.4132 52.8711C37.705 53.8704 36.8139 54.5891 35.9134 55.2844C35.4256 55.6643 34.9472 56.1025 34.4313 56.4239C34.6986 56.1084 34.98 55.8162 35.2286 55.4831C37.1281 52.912 38.5023 49.7157 40.0688 46.8291C40.111 46.7239 40.1532 46.6947 40.1251 46.5778L34.2625 55.9331C34.3703 55.6 34.5063 55.2903 34.5954 54.9514C34.8065 54.145 34.9425 53.3152 35.2099 52.5264C35.9931 50.2066 37.4564 48.3776 39.0745 46.9343C39.6983 46.3791 40.3455 45.9292 40.9271 45.3157Z" fill="#AC9782"/>
<path d="M23.9161 43.9193C24.8682 45.7132 26.2096 46.8468 27.5134 48.2024C29.1972 49.9555 30.2665 52.4798 30.9607 55.0275C31.0685 55.4248 31.2092 55.8222 31.2796 56.2312C31.0638 55.9274 30.895 55.4482 30.7262 55.0918C30.3322 54.2737 29.9335 53.4498 29.4645 52.6902C28.5124 51.1533 27.3352 49.973 26.3034 48.5472C25.6796 47.6882 25.1543 46.7416 24.7228 45.7132H24.7181L24.6947 45.7599C25.2622 47.1915 25.9751 48.3368 26.8474 49.5055C27.3634 50.2009 27.9215 50.8845 28.3717 51.6442C28.9533 52.6259 29.3707 53.7069 29.8866 54.7353C30.2196 55.4015 30.6042 55.9624 31.0029 56.5643L30.2102 55.8164C29.4973 55.197 28.7704 54.6535 28.1091 53.9406C26.2377 51.9188 25.2247 49.0614 24.4789 46.1865L23.9161 43.9193Z" fill="#AC9782"/>
<path d="M29.047 38.707C29.2299 37.9941 29.4925 37.2929 29.7223 36.6092C29.9381 35.9781 30.1491 35.2536 30.454 34.6751C30.5572 34.6225 30.5525 34.6283 30.6604 34.6809C30.9042 35.014 31.0262 35.5633 31.1716 35.9781L32.0252 38.5258C32.3676 39.6419 32.649 40.9158 33.1977 41.9033L33.193 41.9559L33.254 41.991L33.1039 42.0494L33.587 42.0786C33.2962 42.1429 32.9538 42.1195 32.6583 42.1254C32.8131 43.1947 33.0289 44.264 33.1086 45.3451C33.2634 47.3786 32.8506 49.2835 32.5458 51.2586L32.527 51.2293C32.3816 50.8086 32.3207 50.2769 32.2175 49.8328C31.9173 48.5239 31.6969 47.1974 31.7719 45.8301C31.8423 44.5679 32.1753 43.2824 32.5505 42.1137L31.3779 42.1254C31.4155 42.0611 31.3967 42.0845 31.4389 42.0319C31.4905 41.9734 31.5515 41.9092 31.5796 41.8274C31.7109 41.4826 31.2982 40.4133 31.181 40.0802L29.3378 40.0393L29.2768 40.0334C29.7833 39.9516 30.3039 40.0627 30.8058 39.9867L30.5712 39.975L30.4634 39.9633C30.1726 39.9867 29.8677 39.9341 29.5816 39.9692C29.5254 39.975 29.4831 39.9692 29.4269 39.9633C29.1971 39.9283 28.9344 39.9633 28.7046 39.9633L28.7515 39.8815C28.8875 39.9399 29.0282 39.9224 29.1736 39.9224C29.455 39.9224 29.7599 39.9575 30.0366 39.9224C30.1022 39.9166 30.1679 39.8757 30.2336 39.8698C30.4493 39.8581 30.6088 39.9049 30.8245 39.8348C30.5806 39.7763 30.3086 39.8114 30.06 39.8114L28.8172 39.8289L29.1642 38.7946L29.047 38.707Z" fill="#AC9782"/>
<path d="M29.1596 38.7884L30.0694 36.1589L31.0637 39.7234C30.984 39.7993 30.9184 39.8052 30.8199 39.8227C30.576 39.7643 30.3039 39.7993 30.0554 39.7993L28.8125 39.8169L29.1596 38.7884Z" fill="#AC9782"/>
<path d="M54.6736 25.9332L54.7486 25.9799L55.6022 30.4325C55.8555 32.0219 55.696 33.9503 55.1848 35.452C54.9034 36.2818 54.5141 37.0122 54.1155 37.7543L54.3547 28.3874C54.2796 28.5218 54.289 28.6795 54.2656 28.8432L54.0686 30.5027L53.2478 39.0574C53.1306 38.8938 53.0555 38.6133 52.9758 38.4146C52.6146 37.4797 52.2863 36.498 52.1034 35.4812C51.7564 33.5237 52.0471 31.5895 52.746 29.8132C53.2806 28.4633 54.0217 27.2012 54.6736 25.9332Z" fill="#AC9782"/>
<path d="M10.7744 26.0032C11.9892 27.9608 13.1898 30.1754 13.6823 32.6121C13.762 32.9977 13.8558 33.4243 13.8464 33.8275C13.8371 34.4177 13.6588 34.9962 13.4853 35.5396C13.0585 36.8777 12.5098 38.1808 12.4113 39.63C12.1017 38.3736 11.9047 36.942 11.8485 35.6331C11.8063 34.7157 11.8344 33.7808 11.8344 32.8634L11.5999 29.3632C11.5248 30.2397 11.5671 31.1629 11.5108 32.0511L11.2528 35.2416C11.2012 35.9487 11.1403 36.7024 11.22 37.4095L11.2294 37.4971L11.1403 37.3335C10.6384 36.2817 10.2116 35.1364 10.0146 33.9327C9.59722 31.3499 10.2351 28.4808 10.7744 26.0032Z" fill="#AC9782"/>
<path d="M41.7104 57.6041C42.6672 57.4463 43.7787 57.6275 44.7074 57.943C46.0159 58.3871 47.4511 59.322 48.1499 60.8238C47.8404 60.4148 47.4839 60.0116 47.0665 59.7837C46.7616 59.6201 46.377 59.6259 46.0534 59.6668C44.2149 59.883 42.564 61.4432 40.8896 62.2963C39.8437 62.8281 38.7463 63.1086 37.6206 62.8164C36.9312 62.6352 36.2605 62.2671 35.6133 61.9282L35.6367 61.8873L36.0588 61.9048C36.5888 61.8814 37.0813 61.7237 37.5831 61.5367C38.8448 61.0634 40.0595 60.3446 41.2836 59.7428C41.626 59.5733 42.1888 59.4448 42.4561 59.1643L38.554 60.257C37.5034 60.5725 36.5091 60.8939 35.5242 61.4724C36.8608 60.0642 38.221 58.5916 39.9375 57.9664C40.5144 57.7619 41.1148 57.6801 41.7104 57.6041Z" fill="#AC9782"/>
<path d="M22.6685 57.657H22.6778C24.4741 57.47 26.2189 57.9725 27.7338 59.2055C28.5639 59.8833 29.3003 60.7014 30.0694 61.4786C28.5405 60.6488 26.8567 60.1755 25.2246 59.8015C23.78 59.4684 22.4152 59.1996 20.9331 59.3808L20.9284 59.4451C21.7164 59.4275 22.509 59.41 23.2922 59.5561C24.4929 59.7781 25.5904 60.345 26.6926 60.941C27.8041 61.4844 28.925 62.0454 30.1445 61.8525C29.4363 62.244 28.653 62.6881 27.8885 62.8634C27.3117 62.9978 26.7442 63.0329 26.1626 62.916C25.3418 62.7524 24.5445 62.3784 23.7894 61.9519C22.2557 61.0929 20.3234 59.486 18.5646 60.082L18.4849 60.1112C18.0956 60.2456 17.7955 60.4735 17.4578 60.7365C18.5412 59.1412 21.0363 57.844 22.6685 57.657Z" fill="#AC9782"/>
<path d="M48.4733 51.2472C48.9283 51.2004 49.3738 51.1888 49.8241 51.3056C51.0717 51.6212 52.3474 52.5327 53.3839 53.4268C53.867 53.8416 54.2703 54.1747 54.5986 54.8C54.3031 54.5312 54.0217 54.2857 53.67 54.1513C52.1785 53.5787 50.6964 55.1739 49.4817 55.9978C48.2107 56.8568 46.799 57.4003 45.3451 57.1841C44.0787 56.9971 42.7983 56.3601 41.5742 55.916C41.729 55.8401 41.9588 55.8518 42.1277 55.8401L43.2158 55.7407L45.2841 55.4486C46.4988 55.2324 47.6901 54.8701 48.872 54.461C49.2097 54.3325 49.7162 54.2448 50.0023 53.9994L48.5343 54.426C46.6911 54.8409 44.8057 54.8409 42.9484 54.6188C44.3695 54.0929 45.7906 53.4969 47.2539 53.2047C48.614 52.9301 49.9273 52.9418 51.2968 53.082C51.7705 53.1288 52.2442 53.2164 52.7038 53.3508C52.9383 53.4151 53.201 53.567 53.4355 53.5787C53.0603 53.2982 52.5303 53.1638 52.0988 53.0645C50.9169 52.7898 49.7068 52.7139 48.5109 52.5795L45.4529 52.1821C45.678 52.0536 45.9407 51.9835 46.1752 51.89C46.9397 51.5803 47.6854 51.3582 48.4733 51.2472Z" fill="#AC9782"/>
<path d="M1.90552 31.8933C2.63717 32.577 3.48608 32.8984 4.33029 33.3074C6.23916 34.2306 8.09644 35.4753 9.14702 37.7717C9.48002 38.508 9.68638 39.3027 9.99124 40.0506C9.55975 39.8403 9.13764 39.5423 8.72022 39.2852C7.90884 38.7885 7.08807 38.2567 6.34703 37.6198C5.39964 36.8076 4.56949 35.8259 3.80031 34.7682C3.94102 35.2123 4.35374 35.6681 4.6117 36.0246C6.23447 38.3736 8.46696 40.1383 10.7088 41.4297C10.3477 41.4121 9.98186 41.3712 9.61603 41.3771C8.78119 41.4005 7.92291 41.4998 7.10683 41.2485C5.19796 40.6642 3.89881 38.2743 3.27033 36.0888C3.02645 35.2299 2.88575 34.33 2.60903 33.4885C2.41674 32.9276 2.15878 32.4133 1.90552 31.8933Z" fill="#AC9782"/>
<path d="M63.3783 32.1506L63.4346 32.174C63.1204 32.9862 62.8577 33.8218 62.6232 34.675C62.2808 35.9196 61.9854 37.1409 61.3897 38.2453C60.4142 40.045 59.0681 40.9858 57.3844 41.4007L54.3687 41.9558C54.7063 41.6344 55.044 41.2955 55.4005 41.0033L57.7877 39.1685C58.6413 38.4556 59.4058 37.6492 60.1375 36.7494L61.5492 34.7977L61.5304 34.7568C60.719 35.8436 59.8842 36.8954 58.8946 37.731C57.844 38.6192 56.7184 39.1977 55.5037 39.6243C55.574 39.4023 55.71 39.1977 55.8132 38.9932C56.0899 38.4381 56.3385 37.8888 56.6621 37.3629C57.8393 35.4463 59.2651 34.2542 61.0567 33.3836C61.854 32.9979 62.6138 32.6648 63.3783 32.1506Z" fill="#AC9782"/>
<path d="M55.879 43.1126C57.5112 42.9314 59.3403 43.5625 60.8599 44.2696C61.2023 44.4274 61.6009 44.5851 61.9058 44.8364L61.5728 44.8013C59.7343 44.5676 57.8911 45.7889 56.4465 47.0802C55.1333 48.2548 53.7544 49.6981 52.1035 50.0019C51.0154 50.2006 49.8429 49.85 48.7642 49.6864C49.2941 49.3942 49.8804 49.2598 50.4338 49.0378C51.3578 48.6638 52.2161 48.1028 53.0368 47.4718L54.4063 46.2446C54.2609 46.2154 53.6184 46.8523 53.4449 46.9692C52.474 47.6061 51.278 47.834 50.2134 48.097C50.5323 47.7639 50.9169 47.4951 51.264 47.2088C51.7752 46.7881 52.2864 46.344 52.8258 45.9817C53.6465 45.4324 54.6221 44.9942 55.5226 44.7137C56.1323 44.5267 56.7561 44.4799 57.3611 44.293C56.7279 44.2404 56.0526 44.4098 55.4288 44.5734C54.2094 44.889 53.0181 45.3331 51.8315 45.8122C52.3052 45.1461 52.7929 44.4274 53.398 43.9482C54.1249 43.358 55.0395 43.1944 55.879 43.1126Z" fill="#AC9782"/>
<path d="M8.15732 43.0073C8.62164 42.943 9.14224 42.9722 9.60656 43.0306C10.7228 43.165 11.8015 43.6968 12.6598 44.6025C13.1007 45.0641 13.4712 45.6192 13.837 46.1744C11.7546 44.9765 9.23605 44.3454 6.94728 44.1935C6.98949 44.2811 7.51478 44.3279 7.63203 44.3512C9.59718 44.7311 11.7312 45.4206 13.4712 46.6594C14.0575 47.0743 14.5687 47.5885 15.1034 48.0968L16.1446 49.0493C14.4796 48.091 12.6411 47.7404 10.9104 46.9983C10.3898 46.7762 9.86921 46.4023 9.33923 46.2445C9.67222 46.5308 10.0803 46.7412 10.4461 46.9574C12.036 47.8923 13.6541 48.4767 15.3191 49.1545C15.7365 49.3239 16.1961 49.4408 16.5948 49.657L14.8548 49.7973C14.2404 49.844 13.5885 49.8966 12.974 49.8148C11.8109 49.657 10.765 49.0493 9.84576 48.167C9.09065 47.4365 8.39652 46.5542 7.59451 45.9114C6.1781 44.772 4.67258 44.8129 3.08264 45.2511C4.13791 44.5441 5.33858 43.7552 6.49234 43.352C7.04577 43.1475 7.59451 43.0657 8.15732 43.0073Z" fill="#AC9782"/>
<path d="M16.5901 50.9198C18.1331 50.7036 19.1696 51.8489 20.389 52.7839C18.8413 52.3398 17.242 52.369 15.6849 52.6904C15.2628 52.778 14.7469 52.889 14.3623 53.1228C14.4795 53.1578 14.6343 53.0936 14.7562 53.0643L15.8209 52.8423C17.4202 52.556 19.2493 52.7897 20.708 53.6721C21.2895 54.0227 21.8383 54.496 22.387 54.9225C22.0118 54.9109 21.6178 54.7589 21.2286 54.7355L18.8225 54.7005C18.2644 54.6596 17.6828 54.607 17.1294 54.496C16.7777 54.4259 16.4306 54.3148 16.0741 54.2564C16.2055 54.4317 16.7355 54.531 16.9371 54.5836L18.8694 55.0803L24.5163 55.8224L21.8805 56.5762C21.2755 56.7632 20.6611 56.9911 20.042 57.0612C18.7897 57.2073 17.4155 56.7866 16.2758 56.1555C15.3659 55.653 14.5639 54.8232 13.6165 54.4317C12.6176 54.0168 11.6936 54.2038 10.7697 54.7881C11.1261 54.3324 11.5529 53.9467 11.9609 53.561C13.2742 52.3339 14.9298 51.136 16.5901 50.9198Z" fill="#AC9782"/>
<path d="M34.2766 37.3566C34.2719 36.743 34.3751 35.6152 34.0374 35.1244C33.8685 34.879 33.5684 34.7387 33.3151 34.7212H33.2776V34.6861L35.1958 34.7212L38.4179 40.3075C38.432 39.4602 38.5352 35.6561 38.3194 35.1945C38.1881 34.9082 37.9958 34.803 37.7519 34.7212L37.7003 34.7037C38.099 34.6277 38.5539 34.7037 38.962 34.6978L41.2648 34.6745C41.7901 34.6745 42.3295 34.6335 42.8407 34.7855C43.502 34.9783 44.032 35.5159 44.379 36.2288C44.7965 37.0761 44.9137 38.2038 44.712 39.168L44.6886 39.2673C44.5666 39.8517 44.3743 40.3893 44.0601 40.8567C42.8782 42.6156 41.2179 41.8676 39.6467 42.0488L39.5858 42.0546L39.7171 41.9378C39.8625 41.8034 39.9469 41.7274 39.9704 41.4937C40.0454 40.6756 39.975 39.7582 39.975 38.9284V36.5969C39.975 36.1937 39.9938 35.7672 39.9657 35.3698C39.9516 35.1594 39.9234 35.0893 39.8203 34.9199C39.6655 34.8264 39.5389 34.7972 39.3653 34.7913C39.1402 34.7855 38.962 34.7796 38.7978 35.0017C38.7322 35.0893 38.6665 35.2179 38.6477 35.3348C38.5586 35.8314 38.6196 36.5034 38.6149 37.0176L38.6337 42.5455C37.5784 41.2249 36.6263 39.7991 35.7211 38.3149C35.2849 37.602 34.8957 36.819 34.4267 36.1411L34.4407 41.0028L34.2672 41.0262L34.2766 37.3566Z" fill="#AC9782"/>
<path d="M41.4195 34.8559C41.8182 34.8209 42.3435 34.8033 42.6999 35.0604C43.0189 35.2942 43.2018 35.6798 43.2956 36.1122L43.3143 36.194C43.4597 36.8485 43.4269 37.6081 43.4316 38.286C43.4363 38.8586 43.4644 39.4605 43.4035 40.0273L43.3941 40.1266C43.3378 40.6642 43.2112 41.0733 42.9298 41.4823C42.6624 41.7102 42.4138 41.8212 42.0949 41.8621C41.8135 41.8972 41.5274 41.9089 41.2976 41.6751C41.2132 41.3888 41.2366 41.0733 41.2366 40.7694L41.246 39.145L41.2413 35.411C41.2413 35.1306 41.2601 35.0546 41.4195 34.8559Z" fill="#AC9782"/>
<path d="M14.7422 17.2206L8.34021 14.1236L9.01089 11.6986L10.9198 6.30515L12.3737 2.63551C12.641 2.03364 12.8896 1.57786 13.4477 1.37918C13.6869 1.43178 13.9308 1.49021 14.1372 1.65967C14.5452 1.98689 14.8078 2.50695 14.7703 3.12051C14.7469 3.49448 14.564 3.92105 14.4373 4.25412L13.3868 6.76677L12.4159 9.19177L11.0558 13.3698C10.9573 13.6853 10.629 14.5209 10.6806 14.8131L11.6514 12.1368C12.3549 10.4072 13.2038 8.75352 14.0856 7.15244C14.367 6.63822 14.7985 5.72081 15.2581 5.4637C15.3988 5.3819 15.5395 5.39943 15.6802 5.4637C16.032 5.62147 16.4165 5.97792 16.5666 6.41617C16.6839 6.76093 16.6182 7.18165 16.515 7.52057C16.3415 8.09322 16.0601 8.63665 15.8115 9.16256L14.5827 11.7629C13.9777 13.136 13.5697 14.556 13.0678 15.9818L14.4045 14.106C14.4326 15.152 14.4655 16.0928 14.7094 17.1037C14.7375 17.168 14.7281 17.1388 14.7422 17.2206Z" fill="#AC9782"/>
<path d="M7.03636 21.4165C7.10202 21.4691 7.18176 21.5042 7.20052 21.5977C7.58041 28.7909 9.35327 36.2236 12.8333 42.0553C13.5556 43.2707 14.3998 44.3868 15.2534 45.4562C17.4155 48.1733 19.8075 50.4931 22.4621 52.4273L25.6185 54.6302C26.519 55.2029 27.4336 55.6645 28.2966 56.3424C29.9944 57.6746 31.4905 59.5211 32.7615 61.4495C33.8262 60.0061 34.8861 58.557 36.129 57.3416C38.1598 55.3607 40.5893 53.9699 42.8546 52.4623C43.4878 52.0416 44.1303 51.6501 44.74 51.1768C46.0861 50.1367 47.3243 48.8862 48.5062 47.5773C50.1336 45.7658 51.5969 43.8668 52.9008 41.6872C54.4204 39.1453 55.7758 36.0834 56.62 33.1033C57.0515 31.584 57.3611 29.9887 57.605 28.411C57.8301 26.9502 57.952 25.4777 57.9942 23.9934V22.7021C57.9942 22.5501 57.9661 22.3106 57.9942 22.1645C58.0317 21.96 58.3366 21.6386 58.4585 21.475L58.4773 23.8415C58.4163 31.2392 56.0291 38.3623 52.216 43.9836C51.1655 45.5321 50.007 46.917 48.7923 48.2551C47.737 49.418 46.6958 50.5399 45.5233 51.5274C44.4821 52.4098 43.3893 53.2571 42.2824 53.9992C40.7863 54.9984 39.2432 55.8632 37.8315 57.0494C36.1759 58.4401 34.722 60.3392 33.2962 62.0805C33.3806 62.3143 33.5729 62.548 33.7042 62.7467C34.0701 63.3076 34.4453 63.8628 34.7642 64.4705C34.8861 64.7101 35.0362 64.9905 35.0784 65.271C35.1019 65.4288 35.0737 65.6158 34.994 65.7443C34.9096 65.8787 34.8908 65.8671 34.7642 65.8787C34.4593 65.5457 34.2108 64.9613 33.9716 64.5464C33.6057 63.9037 33.2305 63.296 32.799 62.7175C32.5692 62.9979 32.3535 63.3018 32.1518 63.6173L31.2701 65.084C31.1622 65.2769 30.9512 65.7794 30.7823 65.867C30.7307 65.8963 30.6651 65.8378 30.6182 65.8145C30.5478 65.6976 30.5197 65.6684 30.515 65.5223C30.4681 64.6575 31.861 62.7292 32.3253 62.0572C30.9934 60.5788 29.8208 58.9076 28.3435 57.6513C26.9411 56.4592 25.3559 55.723 23.8738 54.7062C21.8102 53.2921 19.8872 51.6326 18.0581 49.7978C16.6745 48.4129 15.3331 46.9228 14.1325 45.2984C12.1345 42.5929 10.3945 39.5076 9.2454 36.1068C8.73887 34.605 8.36366 33.0331 8.01659 31.4671C7.29432 28.2182 6.9238 24.794 7.03636 21.4165Z" fill="#AC9782"/>
<path d="M51.9816 1.51934H52.1036C52.4178 1.54856 52.6523 1.67711 52.8728 1.96344C53.1448 2.31988 53.3136 2.83994 53.4872 3.27819L54.5377 6.03042L56.789 11.8504L57.2908 13.247C57.4034 13.5684 57.5019 13.9599 57.6895 14.2228C57.3659 12.9548 56.925 11.7277 56.5451 10.4831L55.5555 6.95952L55.049 5.1247C54.8942 4.53452 54.7206 3.91512 54.8051 3.28404C54.866 2.81657 55.1146 2.36663 55.4335 2.10952C55.654 1.93422 55.9495 1.85826 56.2027 1.95759C56.5592 2.09199 56.789 2.53609 56.9484 2.92759C57.3752 3.96771 57.6097 5.19482 57.9099 6.29922L59.1012 10.8395C59.2841 11.5816 59.5421 12.3939 59.6077 13.1652C59.6546 13.7261 59.4858 14.2871 59.3451 14.813C59.2231 14.6669 59.0965 14.515 58.9464 14.4157C58.1866 13.9131 57.2298 14.4624 56.4841 14.7546L53.3558 16.1804L51.9535 13.7086L50.0681 10.261C49.6319 9.4488 49.0785 8.56061 48.8064 7.6432C48.7267 7.36856 48.6892 7.08223 48.7314 6.79591L48.7408 6.72579C48.7783 6.50374 48.8299 6.32844 48.9331 6.13561C49.0785 5.86681 49.3177 5.66813 49.5803 5.61554C49.918 5.55127 50.2651 5.62139 50.5418 5.87265C51.3016 6.55633 51.8222 7.80681 52.3287 8.77097L54.7957 13.6385C54.9927 14.0242 55.2506 14.7546 55.5414 15.0175C55.2225 14.1118 54.8332 13.2645 54.4721 12.388L52.0614 6.48621C51.7143 5.58049 51.2922 4.6397 51.0671 3.67554C50.9404 3.13211 50.9498 2.62374 51.189 2.13289C51.3813 1.75892 51.6533 1.61868 51.9816 1.51934Z" fill="#AC9782"/>
<path d="M62.8297 6.13062C62.9376 6.11893 62.8907 6.1014 62.9798 6.16568L62.6233 13.4757C62.5764 14.3639 62.6843 15.3807 62.4592 16.2397C62.2904 16.8766 61.7979 17.309 61.3992 17.718L60.5128 18.6763C59.7483 19.547 59.087 20.5345 58.3647 21.4519C57.8113 22.1531 57.2157 22.8076 56.5872 23.4036C55.3021 24.6249 53.8669 25.6416 52.5021 26.7227C51.8127 27.2661 51.142 27.8271 50.5041 28.464C50.2415 28.7269 49.9413 29.0191 49.7209 29.3347C49.4817 29.6736 49.3504 30.2287 49.205 30.6436L48.5062 32.5018L41.4194 32.5251L42.8218 28.2303C43.5534 25.9922 44.2288 23.6958 45.5092 21.8259C46.1048 20.9611 46.8318 20.2365 47.6104 19.6463L47.7604 19.5412C49.5239 18.3316 51.4984 17.4726 53.3792 16.5727C54.6783 15.9533 56.0197 15.2404 57.3751 14.8314C57.7269 14.7262 58.224 14.6094 58.5758 14.7554C58.7165 14.8139 58.8806 14.9366 58.9322 15.1177C59.0401 15.4859 58.3976 16.0468 58.1959 16.2397C57.483 16.9233 56.7373 17.5486 55.9634 18.1271L53.3463 20.0495C52.1785 20.9143 50.9685 21.7383 50.0164 22.9712C49.81 23.24 49.5896 23.503 49.4864 23.8536C50.3118 22.7667 51.2733 22.1473 52.3239 21.4461L54.7158 19.81C56.015 18.8867 57.2813 17.7881 58.4304 16.6019C58.8009 16.2221 59.3403 15.7488 59.5654 15.2112C59.7952 14.6561 59.8796 14.0425 59.9453 13.429C60.1235 11.8104 59.9922 10.0807 60.5456 8.56146C61.0287 7.2467 61.7697 6.6273 62.8297 6.13062Z" fill="#AC9782"/>
<path d="M7.03646 21.4161L6.98956 21.381C6.79726 21.2291 6.60966 20.8902 6.45019 20.6798L5.17918 18.9794C4.5554 18.2139 3.73463 17.6237 3.16713 16.7998C2.96077 16.496 2.82006 16.1103 2.76378 15.7246C2.67936 15.1344 2.78254 14.3982 2.82006 13.7963C2.91386 12.2303 2.98891 10.7928 2.74502 9.23264C2.66529 8.73595 2.24318 6.533 2.31822 6.25836C3.24217 6.48041 4.06763 6.8836 4.61637 7.90035C5.3574 9.27939 5.39492 11.1668 5.37616 12.7679C5.36678 13.2879 5.31519 13.9073 5.42306 14.4157C5.47935 14.6903 5.63881 14.9416 5.77482 15.1578C5.72792 14.6845 5.63881 14.2112 5.71385 13.7379C5.78889 13.2704 5.93428 12.8029 6.05623 12.353L6.6847 9.98643L8.22774 4.08463C8.41534 3.43017 8.61233 2.48939 8.96408 1.9518C9.06258 1.79403 9.20328 1.64794 9.36743 1.62457C9.6676 1.58367 9.95369 1.74144 10.1694 1.99854C10.4649 2.35499 10.5587 2.83415 10.5634 3.33084C10.5634 4.16059 10.3477 5.0371 10.1647 5.8318L9.07196 10.0741L8.18553 14.071L8.13863 14.0593C7.57582 13.9015 6.68939 13.8022 6.18755 14.2229C6.0703 14.3222 5.96711 14.4625 5.94835 14.6436C5.91552 14.9942 5.98119 15.2747 6.1641 15.5376C6.60028 16.1804 7.21468 16.7005 7.75873 17.203C8.84214 18.2081 9.93962 19.1722 11.0981 20.0429L14.4562 22.4094L15.2441 23.0113C15.3895 23.134 15.6522 23.432 15.8022 23.4788C15.4739 22.947 14.9205 22.5088 14.489 22.0939C13.1148 20.7791 11.6656 19.6105 10.1882 18.4827C9.06258 17.6237 7.81032 16.8173 6.81602 15.7422C6.61904 15.526 6.29073 15.152 6.3517 14.7897C6.36577 14.6962 6.49241 14.591 6.56276 14.5501C6.73629 14.4508 6.94734 14.4274 7.13495 14.404C8.18553 14.2872 9.4284 15.0176 10.3899 15.4675L13.0351 16.7998L15.1878 18.0035C16.8481 18.9093 18.7242 19.9202 19.9905 21.5855C21.1114 23.0581 21.8243 24.9163 22.4153 26.7861L24.221 32.5243H16.8012C16.3979 31.1394 15.8116 29.626 14.9721 28.5684C14.2357 27.6451 13.1617 27.0082 12.2847 26.307C10.4977 24.8753 8.74834 23.4262 7.20061 21.6031C7.18185 21.5037 7.10212 21.4687 7.03646 21.4161Z" fill="#AC9782"/>
<path d="M19.3197 0.0119821L26.2188 0.041199L28.4419 0.0295151C28.7843 0.0236717 29.2205 -0.0406082 29.5488 0.041199L29.5394 0.976139C29.2158 1.05795 28.5545 0.964453 28.3106 1.23325C28.2778 1.57216 28.3341 1.86433 28.4279 2.17988C28.7562 3.26674 29.1783 4.33608 29.5535 5.39957L31.3967 10.6703L34.2764 18.9971L35.3082 22.1525L42.4231 1.85849C42.5122 1.56632 42.545 1.4553 42.4419 1.17481C42.1745 0.935237 41.5883 1.01704 41.2693 1.01704C41.1662 0.730718 41.1521 0.397648 41.1286 0.0879488L45.6358 0.0821033L45.331 0.993672C45.0496 0.999515 44.6415 0.958609 44.3836 1.09301C44.2851 1.1456 44.2147 1.21572 44.1537 1.3209C43.9802 1.61891 43.8817 2.04548 43.7692 2.38439L43.1266 4.27764L33.1039 32.5713L32.588 32.5829L32.5223 32.3784L30.196 26.0325L25.4497 13.294L22.1009 4.31855L21.3927 2.47789C21.2473 2.1156 21.1019 1.71241 20.8862 1.40271C20.586 0.981985 20.1733 0.999515 19.7606 0.993672C19.6246 0.993672 19.4792 1.01704 19.3525 0.952767L19.3197 0.0119821Z" fill="#AC9782"/>
</svg>
